<mxfile host="app.diagrams.net" modified="2023-05-22T14:31:09.560Z" agent="Mozilla/5.0 (Windows NT 10.0; Win64; x64) AppleWebKit/537.36 (KHTML, like Gecko) Chrome/113.0.0.0 Safari/537.36" etag="XROl1OuKXKi0u91_d3QO" version="21.3.2" type="device">
  <diagram name="Page-1" id="9c096ad6-e400-ecc8-3e38-643d2caac077">
    <mxGraphModel dx="1386" dy="827" grid="1" gridSize="10" guides="1" tooltips="1" connect="1" arrows="1" fold="1" page="1" pageScale="1.5" pageWidth="1169" pageHeight="826" background="none" math="0" shadow="0">
      <root>
        <mxCell id="0" style=";html=1;" />
        <mxCell id="1" style=";html=1;" parent="0" />
        <mxCell id="3cfceab9cabfe5b9-59" value="" style="line;strokeWidth=1;html=1;rounded=1;fontSize=12;align=center;verticalAlign=middle;strokeColor=#FF0000;endFill=1;endArrow=classic;endSize=10;startSize=10;" parent="1" vertex="1">
          <mxGeometry x="87" y="1105" width="68" height="10" as="geometry" />
        </mxCell>
        <mxCell id="v1Cbsk89CRdppxtF5im--1" value="로그아웃&lt;br&gt;/user/logout.do" style="whiteSpace=wrap;html=1;" vertex="1" parent="1">
          <mxGeometry x="320" y="200" width="120" height="170" as="geometry" />
        </mxCell>
        <mxCell id="v1Cbsk89CRdppxtF5im--2" value="로그인&lt;br&gt;/user/login.do" style="whiteSpace=wrap;html=1;" vertex="1" parent="1">
          <mxGeometry x="530" y="200" width="120" height="170" as="geometry" />
        </mxCell>
        <mxCell id="v1Cbsk89CRdppxtF5im--3" value="회원가입&lt;br&gt;/user/register.do" style="whiteSpace=wrap;html=1;" vertex="1" parent="1">
          <mxGeometry x="750" y="200" width="120" height="170" as="geometry" />
        </mxCell>
        <mxCell id="v1Cbsk89CRdppxtF5im--4" value="회원탈퇴&lt;br&gt;/user/unregister.do" style="whiteSpace=wrap;html=1;" vertex="1" parent="1">
          <mxGeometry x="980" y="200" width="120" height="170" as="geometry" />
        </mxCell>
        <mxCell id="v1Cbsk89CRdppxtF5im--5" value="회원정보&lt;br&gt;/user/info.do&lt;br&gt;" style="whiteSpace=wrap;html=1;" vertex="1" parent="1">
          <mxGeometry x="980" y="440" width="120" height="170" as="geometry" />
        </mxCell>
        <mxCell id="v1Cbsk89CRdppxtF5im--6" value="시작페이지&lt;br&gt;/index.do" style="whiteSpace=wrap;html=1;" vertex="1" parent="1">
          <mxGeometry x="757" y="450" width="120" height="170" as="geometry" />
        </mxCell>
        <mxCell id="v1Cbsk89CRdppxtF5im--8" value="" style="endArrow=classic;html=1;rounded=0;exitX=0.75;exitY=1;exitDx=0;exitDy=0;" edge="1" parent="1" source="v1Cbsk89CRdppxtF5im--3">
          <mxGeometry width="50" height="50" relative="1" as="geometry">
            <mxPoint x="710" y="570" as="sourcePoint" />
            <mxPoint x="840" y="450" as="targetPoint" />
          </mxGeometry>
        </mxCell>
        <mxCell id="v1Cbsk89CRdppxtF5im--10" value="Result" style="edgeLabel;html=1;align=center;verticalAlign=middle;resizable=0;points=[];" vertex="1" connectable="0" parent="v1Cbsk89CRdppxtF5im--8">
          <mxGeometry x="-0.3197" y="-1" relative="1" as="geometry">
            <mxPoint as="offset" />
          </mxGeometry>
        </mxCell>
        <mxCell id="v1Cbsk89CRdppxtF5im--9" value="Result" style="endArrow=classic;html=1;rounded=0;entryX=0.384;entryY=0.993;entryDx=0;entryDy=0;entryPerimeter=0;exitX=0.25;exitY=0;exitDx=0;exitDy=0;" edge="1" parent="1" source="v1Cbsk89CRdppxtF5im--6" target="v1Cbsk89CRdppxtF5im--3">
          <mxGeometry width="50" height="50" relative="1" as="geometry">
            <mxPoint x="710" y="570" as="sourcePoint" />
            <mxPoint x="760" y="520" as="targetPoint" />
          </mxGeometry>
        </mxCell>
        <mxCell id="v1Cbsk89CRdppxtF5im--11" value="" style="endArrow=classic;html=1;rounded=0;entryX=0;entryY=0.25;entryDx=0;entryDy=0;exitX=1.019;exitY=0.216;exitDx=0;exitDy=0;exitPerimeter=0;" edge="1" parent="1" source="v1Cbsk89CRdppxtF5im--6" target="v1Cbsk89CRdppxtF5im--5">
          <mxGeometry width="50" height="50" relative="1" as="geometry">
            <mxPoint x="710" y="570" as="sourcePoint" />
            <mxPoint x="760" y="520" as="targetPoint" />
          </mxGeometry>
        </mxCell>
        <mxCell id="v1Cbsk89CRdppxtF5im--12" value="" style="endArrow=classic;html=1;rounded=0;entryX=1.001;entryY=0.606;entryDx=0;entryDy=0;entryPerimeter=0;exitX=-0.032;exitY=0.683;exitDx=0;exitDy=0;exitPerimeter=0;" edge="1" parent="1" source="v1Cbsk89CRdppxtF5im--5" target="v1Cbsk89CRdppxtF5im--6">
          <mxGeometry width="50" height="50" relative="1" as="geometry">
            <mxPoint x="710" y="570" as="sourcePoint" />
            <mxPoint x="760" y="520" as="targetPoint" />
          </mxGeometry>
        </mxCell>
        <mxCell id="v1Cbsk89CRdppxtF5im--13" value="" style="endArrow=classic;html=1;rounded=0;entryX=0;entryY=0.75;entryDx=0;entryDy=0;exitX=1;exitY=0;exitDx=0;exitDy=0;" edge="1" parent="1" source="v1Cbsk89CRdppxtF5im--6" target="v1Cbsk89CRdppxtF5im--4">
          <mxGeometry width="50" height="50" relative="1" as="geometry">
            <mxPoint x="710" y="570" as="sourcePoint" />
            <mxPoint x="760" y="520" as="targetPoint" />
          </mxGeometry>
        </mxCell>
        <mxCell id="v1Cbsk89CRdppxtF5im--14" value="" style="endArrow=classic;html=1;rounded=0;exitX=0.143;exitY=0.993;exitDx=0;exitDy=0;exitPerimeter=0;entryX=0.984;entryY=0.08;entryDx=0;entryDy=0;entryPerimeter=0;" edge="1" parent="1" source="v1Cbsk89CRdppxtF5im--4" target="v1Cbsk89CRdppxtF5im--6">
          <mxGeometry width="50" height="50" relative="1" as="geometry">
            <mxPoint x="710" y="570" as="sourcePoint" />
            <mxPoint x="760" y="520" as="targetPoint" />
          </mxGeometry>
        </mxCell>
        <mxCell id="v1Cbsk89CRdppxtF5im--18" value="Result" style="edgeLabel;html=1;align=center;verticalAlign=middle;resizable=0;points=[];" vertex="1" connectable="0" parent="v1Cbsk89CRdppxtF5im--14">
          <mxGeometry x="-0.281" y="-1" relative="1" as="geometry">
            <mxPoint as="offset" />
          </mxGeometry>
        </mxCell>
        <mxCell id="v1Cbsk89CRdppxtF5im--15" value="인증처리" style="endArrow=classic;html=1;rounded=0;entryX=0.75;entryY=0;entryDx=0;entryDy=0;" edge="1" parent="1" target="v1Cbsk89CRdppxtF5im--2">
          <mxGeometry width="50" height="50" relative="1" as="geometry">
            <mxPoint x="550" y="200" as="sourcePoint" />
            <mxPoint x="600" y="150" as="targetPoint" />
            <Array as="points">
              <mxPoint x="590" y="170" />
            </Array>
          </mxGeometry>
        </mxCell>
        <mxCell id="v1Cbsk89CRdppxtF5im--16" value="" style="endArrow=classic;html=1;rounded=0;exitX=0;exitY=0.25;exitDx=0;exitDy=0;" edge="1" parent="1" source="v1Cbsk89CRdppxtF5im--6" target="v1Cbsk89CRdppxtF5im--1">
          <mxGeometry width="50" height="50" relative="1" as="geometry">
            <mxPoint x="710" y="360" as="sourcePoint" />
            <mxPoint x="760" y="310" as="targetPoint" />
          </mxGeometry>
        </mxCell>
        <mxCell id="v1Cbsk89CRdppxtF5im--17" value="" style="endArrow=classic;html=1;rounded=0;entryX=0.001;entryY=0.575;entryDx=0;entryDy=0;entryPerimeter=0;exitX=0.994;exitY=0.857;exitDx=0;exitDy=0;exitPerimeter=0;" edge="1" parent="1" source="v1Cbsk89CRdppxtF5im--1" target="v1Cbsk89CRdppxtF5im--6">
          <mxGeometry width="50" height="50" relative="1" as="geometry">
            <mxPoint x="370" y="490" as="sourcePoint" />
            <mxPoint x="760" y="310" as="targetPoint" />
          </mxGeometry>
        </mxCell>
      </root>
    </mxGraphModel>
  </diagram>
</mxfile>
